<svg id="visual" viewBox="0 0 675 900" width="675" height="900" xmlns="http://www.w3.org/2000/svg" xmlns:xlink="http://www.w3.org/1999/xlink" version="1.1"><path d="M0 82L5.3 80.5C10.7 79 21.3 76 32 80.5C42.7 85 53.3 97 64 115C74.7 133 85.3 157 96.2 154C107 151 118 121 128.8 113.5C139.7 106 150.3 121 161 122.5C171.7 124 182.3 112 193 104.5C203.7 97 214.3 94 225 100C235.7 106 246.3 121 257 121C267.7 121 278.3 106 289 98.5C299.7 91 310.3 91 321.2 98.5C332 106 343 121 353.8 130C364.7 139 375.3 142 386 146.5C396.7 151 407.3 157 418 166C428.7 175 439.3 187 450 184C460.7 181 471.3 163 482 148C492.7 133 503.3 121 514 128.5C524.7 136 535.3 163 546.2 166C557 169 568 148 578.8 130C589.7 112 600.3 97 611 101.5C621.7 106 632.3 130 643 134.5C653.7 139 664.3 124 669.7 116.5L675 109L675 0L669.7 0C664.3 0 653.7 0 643 0C632.3 0 621.7 0 611 0C600.3 0 589.7 0 578.8 0C568 0 557 0 546.2 0C535.3 0 524.7 0 514 0C503.3 0 492.7 0 482 0C471.3 0 460.7 0 450 0C439.3 0 428.7 0 418 0C407.3 0 396.7 0 386 0C375.3 0 364.7 0 353.8 0C343 0 332 0 321.2 0C310.3 0 299.7 0 289 0C278.3 0 267.7 0 257 0C246.3 0 235.7 0 225 0C214.3 0 203.7 0 193 0C182.3 0 171.7 0 161 0C150.3 0 139.7 0 128.8 0C118 0 107 0 96.2 0C85.3 0 74.7 0 64 0C53.3 0 42.7 0 32 0C21.3 0 10.7 0 5.3 0L0 0Z" fill="#0a6a71"></path><path d="M0 172L5.3 170.5C10.7 169 21.3 166 32 166C42.7 166 53.3 169 64 179.5C74.7 190 85.3 208 96.2 208C107 208 118 190 128.8 190C139.7 190 150.3 208 161 203.5C171.7 199 182.3 172 193 161.5C203.7 151 214.3 157 225 163C235.7 169 246.3 175 257 170.5C267.7 166 278.3 151 289 143.5C299.7 136 310.3 136 321.2 143.5C332 151 343 166 353.8 175C364.7 184 375.3 187 386 196C396.7 205 407.3 220 418 230.5C428.7 241 439.3 247 450 247C460.7 247 471.3 241 482 230.5C492.7 220 503.3 205 514 206.5C524.7 208 535.3 226 546.2 227.5C557 229 568 214 578.8 199C589.7 184 600.3 169 611 173.5C621.7 178 632.3 202 643 208C653.7 214 664.3 202 669.7 196L675 190L675 107L669.7 114.5C664.3 122 653.7 137 643 132.5C632.3 128 621.7 104 611 99.5C600.3 95 589.7 110 578.8 128C568 146 557 167 546.2 164C535.3 161 524.7 134 514 126.5C503.3 119 492.7 131 482 146C471.3 161 460.7 179 450 182C439.3 185 428.7 173 418 164C407.3 155 396.7 149 386 144.5C375.3 140 364.7 137 353.8 128C343 119 332 104 321.2 96.5C310.3 89 299.7 89 289 96.5C278.3 104 267.7 119 257 119C246.3 119 235.7 104 225 98C214.3 92 203.7 95 193 102.5C182.3 110 171.7 122 161 120.5C150.3 119 139.7 104 128.8 111.5C118 119 107 149 96.2 152C85.3 155 74.7 131 64 113C53.3 95 42.7 83 32 78.5C21.3 74 10.7 77 5.3 78.5L0 80Z" fill="#009575"></path><path d="M0 271L5.3 265C10.7 259 21.3 247 32 244C42.7 241 53.3 247 64 253C74.7 259 85.3 265 96.2 266.5C107 268 118 265 128.8 271C139.7 277 150.3 292 161 281.5C171.7 271 182.3 235 193 220C203.7 205 214.3 211 225 215.5C235.7 220 246.3 223 257 226C267.7 229 278.3 232 289 227.5C299.7 223 310.3 211 321.2 209.5C332 208 343 217 353.8 224.5C364.7 232 375.3 238 386 251.5C396.7 265 407.3 286 418 295C428.7 304 439.3 301 450 299.5C460.7 298 471.3 298 482 295C492.7 292 503.3 286 514 284.5C524.7 283 535.3 286 546.2 287.5C557 289 568 289 578.8 283C589.7 277 600.3 265 611 263.5C621.7 262 632.3 271 643 277C653.7 283 664.3 286 669.7 287.5L675 289L675 188L669.7 194C664.3 200 653.7 212 643 206C632.3 200 621.7 176 611 171.5C600.3 167 589.7 182 578.8 197C568 212 557 227 546.2 225.5C535.3 224 524.7 206 514 204.5C503.3 203 492.7 218 482 228.5C471.3 239 460.7 245 450 245C439.3 245 428.7 239 418 228.5C407.3 218 396.7 203 386 194C375.3 185 364.7 182 353.8 173C343 164 332 149 321.2 141.5C310.3 134 299.7 134 289 141.5C278.3 149 267.7 164 257 168.5C246.3 173 235.7 167 225 161C214.3 155 203.7 149 193 159.5C182.3 170 171.7 197 161 201.5C150.3 206 139.7 188 128.8 188C118 188 107 206 96.2 206C85.3 206 74.7 188 64 177.5C53.3 167 42.7 164 32 164C21.3 164 10.7 167 5.3 168.5L0 170Z" fill="#6bba4f"></path><path d="M0 352L5.3 350.5C10.7 349 21.3 346 32 353.5C42.7 361 53.3 379 64 388C74.7 397 85.3 397 96.2 394C107 391 118 385 128.8 385C139.7 385 150.3 391 161 374.5C171.7 358 182.3 319 193 307C203.7 295 214.3 310 225 319C235.7 328 246.3 331 257 329.5C267.7 328 278.3 322 289 311.5C299.7 301 310.3 286 321.2 296.5C332 307 343 343 353.8 356.5C364.7 370 375.3 361 386 361C396.7 361 407.3 370 418 376C428.7 382 439.3 385 450 383.5C460.7 382 471.3 376 482 374.5C492.7 373 503.3 376 514 383.5C524.7 391 535.3 403 546.2 398.5C557 394 568 373 578.8 361C589.7 349 600.3 346 611 347.5C621.7 349 632.3 355 643 359.5C653.7 364 664.3 367 669.7 368.5L675 370L675 287L669.7 285.5C664.3 284 653.7 281 643 275C632.3 269 621.7 260 611 261.5C600.3 263 589.7 275 578.8 281C568 287 557 287 546.2 285.5C535.3 284 524.7 281 514 282.5C503.3 284 492.7 290 482 293C471.3 296 460.7 296 450 297.5C439.3 299 428.7 302 418 293C407.3 284 396.7 263 386 249.5C375.3 236 364.7 230 353.8 222.5C343 215 332 206 321.2 207.5C310.3 209 299.7 221 289 225.5C278.3 230 267.7 227 257 224C246.3 221 235.7 218 225 213.5C214.3 209 203.7 203 193 218C182.3 233 171.7 269 161 279.5C150.3 290 139.7 275 128.8 269C118 263 107 266 96.2 264.5C85.3 263 74.7 257 64 251C53.3 245 42.7 239 32 242C21.3 245 10.7 257 5.3 263L0 269Z" fill="#98c637"></path><path d="M0 658L5.3 632.5C10.7 607 21.3 556 32 559C42.7 562 53.3 619 64 637C74.7 655 85.3 634 96.2 622C107 610 118 607 128.8 593.5C139.7 580 150.3 556 161 554.5C171.7 553 182.3 574 193 590.5C203.7 607 214.3 619 225 605.5C235.7 592 246.3 553 257 530.5C267.7 508 278.3 502 289 526C299.7 550 310.3 604 321.2 628C332 652 343 646 353.8 617.5C364.7 589 375.3 538 386 521.5C396.7 505 407.3 523 418 541C428.7 559 439.3 577 450 589C460.7 601 471.3 607 482 599.5C492.7 592 503.3 571 514 560.5C524.7 550 535.3 550 546.2 547C557 544 568 538 578.8 536.5C589.7 535 600.3 538 611 544C621.7 550 632.3 559 643 566.5C653.7 574 664.3 580 669.7 583L675 586L675 368L669.7 366.5C664.3 365 653.7 362 643 357.5C632.3 353 621.7 347 611 345.5C600.3 344 589.7 347 578.8 359C568 371 557 392 546.2 396.5C535.3 401 524.7 389 514 381.5C503.3 374 492.7 371 482 372.5C471.3 374 460.7 380 450 381.5C439.3 383 428.7 380 418 374C407.3 368 396.7 359 386 359C375.3 359 364.7 368 353.8 354.5C343 341 332 305 321.2 294.5C310.3 284 299.7 299 289 309.5C278.3 320 267.7 326 257 327.5C246.3 329 235.7 326 225 317C214.3 308 203.7 293 193 305C182.3 317 171.7 356 161 372.5C150.3 389 139.7 383 128.8 383C118 383 107 389 96.2 392C85.3 395 74.7 395 64 386C53.3 377 42.7 359 32 351.5C21.3 344 10.7 347 5.3 348.5L0 350Z" fill="#6bba4f"></path><path d="M0 721L5.3 703C10.7 685 21.3 649 32 650.5C42.7 652 53.3 691 64 710.5C74.7 730 85.3 730 96.2 727C107 724 118 718 128.8 704.5C139.7 691 150.3 670 161 667C171.7 664 182.3 679 193 691C203.7 703 214.3 712 225 698.5C235.7 685 246.3 649 257 629.5C267.7 610 278.3 607 289 625C299.7 643 310.3 682 321.2 706C332 730 343 739 353.8 718C364.7 697 375.3 646 386 629.5C396.7 613 407.3 631 418 641.5C428.7 652 439.3 655 450 665.5C460.7 676 471.3 694 482 688C492.7 682 503.3 652 514 640C524.7 628 535.3 634 546.2 628C557 622 568 604 578.8 601C589.7 598 600.3 610 611 616C621.7 622 632.3 622 643 635.5C653.7 649 664.3 676 669.7 689.5L675 703L675 584L669.7 581C664.3 578 653.7 572 643 564.5C632.3 557 621.7 548 611 542C600.3 536 589.7 533 578.8 534.5C568 536 557 542 546.2 545C535.3 548 524.7 548 514 558.5C503.3 569 492.7 590 482 597.5C471.3 605 460.7 599 450 587C439.3 575 428.7 557 418 539C407.3 521 396.7 503 386 519.5C375.3 536 364.7 587 353.8 615.5C343 644 332 650 321.2 626C310.3 602 299.7 548 289 524C278.3 500 267.7 506 257 528.5C246.3 551 235.7 590 225 603.5C214.3 617 203.7 605 193 588.5C182.3 572 171.7 551 161 552.5C150.3 554 139.7 578 128.8 591.5C118 605 107 608 96.2 620C85.3 632 74.7 653 64 635C53.3 617 42.7 560 32 557C21.3 554 10.7 605 5.3 630.5L0 656Z" fill="#009575"></path><path d="M0 901L5.3 901C10.7 901 21.3 901 32 901C42.7 901 53.3 901 64 901C74.7 901 85.3 901 96.2 901C107 901 118 901 128.8 901C139.7 901 150.3 901 161 901C171.7 901 182.3 901 193 901C203.7 901 214.3 901 225 901C235.7 901 246.3 901 257 901C267.7 901 278.3 901 289 901C299.7 901 310.3 901 321.2 901C332 901 343 901 353.8 901C364.7 901 375.3 901 386 901C396.7 901 407.3 901 418 901C428.7 901 439.3 901 450 901C460.7 901 471.3 901 482 901C492.7 901 503.3 901 514 901C524.7 901 535.3 901 546.2 901C557 901 568 901 578.8 901C589.7 901 600.3 901 611 901C621.7 901 632.3 901 643 901C653.7 901 664.3 901 669.7 901L675 901L675 701L669.7 687.5C664.3 674 653.7 647 643 633.5C632.3 620 621.7 620 611 614C600.3 608 589.7 596 578.8 599C568 602 557 620 546.2 626C535.3 632 524.7 626 514 638C503.3 650 492.7 680 482 686C471.3 692 460.7 674 450 663.5C439.3 653 428.7 650 418 639.5C407.3 629 396.7 611 386 627.5C375.3 644 364.7 695 353.8 716C343 737 332 728 321.2 704C310.3 680 299.7 641 289 623C278.3 605 267.7 608 257 627.5C246.3 647 235.7 683 225 696.5C214.3 710 203.7 701 193 689C182.3 677 171.7 662 161 665C150.3 668 139.7 689 128.8 702.5C118 716 107 722 96.2 725C85.3 728 74.7 728 64 708.5C53.3 689 42.7 650 32 648.5C21.3 647 10.7 683 5.3 701L0 719Z" fill="#0a6a71"></path></svg>